<?xml version="1.0" encoding="UTF-8"?>
<!DOCTYPE svg PUBLIC "-//W3C//DTD SVG 1.1//EN" "http://www.w3.org/Graphics/SVG/1.1/DTD/svg11.dtd">
<!-- Creator: CorelDRAW X7 -->
<?xml-stylesheet href="mizivuari.css" type="text/css"?>
<svg xmlns="http://www.w3.org/2000/svg" xml:space="preserve" width="119.323mm" height="8.8011mm" version="1.1" style="shape-rendering:geometricPrecision; text-rendering:geometricPrecision; image-rendering:optimizeQuality; fill-rule:evenodd; clip-rule:evenodd"
viewBox="0 0 12189 899"
 xmlns:xlink="http://www.w3.org/1999/xlink">
 <g id="Layer_x0020_1">
  <metadata id="CorelCorpID_0Corel-Layer"/>
  <polygon class="fil0" points="53,881 0,881 0,1 48,1 437,794 824,1 872,1 872,881 819,881 819,140 448,899 424,899 53,140 "/>
  <polygon class="fil0" points="1397,0 1397,881 1342,881 1342,0 "/>
  <polygon class="fil0" points="1856,841 2512,64 1853,64 1853,0 2606,0 2606,39 1955,817 2611,817 2611,881 1856,881 "/>
  <polygon class="fil0" points="3121,0 3121,881 3066,881 3066,0 "/>
  <polygon class="fil0" points="4262,1 4320,1 3950,898 3926,898 3556,1 3618,1 3939,785 "/>
  <path class="fil0" d="M4802 468c0,51 6,99 18,144 12,44 31,83 57,116 25,33 58,58 98,77 39,19 87,28 142,28 56,0 103,-9 142,-28 40,-19 72,-44 97,-77 25,-33 44,-72 56,-116 12,-44 18,-91 19,-141l4 -470 49 0 0 449c0,58 -6,114 -19,168 -13,54 -34,102 -63,144 -29,41 -67,74 -114,99 -46,24 -103,37 -171,37 -66,0 -122,-12 -168,-36 -46,-24 -84,-56 -114,-97 -30,-41 -52,-89 -65,-143 -14,-54 -21,-111 -21,-172l0 -449 50 0 3 467z"/>
  <path class="fil0" d="M6362 1l414 880 -61 0 -153 -328 -441 0 -153 328 -61 0 412 -880 43 0zm171 489l-192 -412 -192 412 384 0z"/>
  <path class="fil0" d="M7764 0c36,0 68,6 95,19 27,12 50,30 68,52 18,22 32,48 41,78 9,29 14,62 14,96 0,32 -5,63 -15,92 -9,29 -23,54 -42,76 -18,22 -41,40 -68,52 -27,13 -58,19 -93,19l-140 0c10,9 21,20 32,35 19,26 43,64 73,114 14,27 28,50 39,69 12,20 22,36 29,48 14,21 31,41 50,58 20,16 43,25 71,25 25,0 46,-8 64,-23 17,-16 31,-35 41,-58 11,-22 18,-46 22,-72 5,-25 7,-48 7,-68l0 -46 53 0 0 46c0,29 -3,60 -10,92 -6,33 -17,64 -32,93 -14,28 -34,52 -57,71 -24,19 -53,28 -88,28 -36,0 -68,-10 -95,-31 -26,-22 -49,-47 -68,-76 -11,-15 -22,-32 -33,-53 -12,-20 -25,-43 -39,-68 -12,-23 -23,-44 -33,-62 -11,-18 -21,-33 -30,-46 -17,-22 -35,-40 -55,-53 -20,-14 -44,-21 -74,-21l-219 0 0 395 -53 0 0 -881 545 0zm-492 422l492 0c52,0 92,-17 121,-50 29,-33 43,-75 43,-127 0,-26 -3,-50 -10,-72 -7,-22 -17,-41 -30,-57 -14,-16 -31,-29 -52,-38 -20,-10 -45,-14 -72,-14l-492 1 0 357z"/>
  <polygon class="fil0" points="8597,0 8597,881 8543,881 8543,0 "/>
  <path class="fil0" d="M9122 881l-53 0 0 -880 520 0c38,0 71,8 98,23 27,15 49,35 67,60 17,24 30,53 37,85 8,32 12,65 12,98 0,32 -4,64 -13,96 -9,31 -22,59 -39,84 -17,25 -39,44 -67,60 -27,15 -59,22 -95,22l-467 0 0 352zm0 -415l475 0c27,0 51,-6 70,-18 19,-11 35,-27 47,-46 13,-19 22,-40 27,-64 6,-24 9,-47 9,-71 0,-24 -3,-48 -9,-72 -5,-24 -14,-45 -26,-65 -12,-19 -28,-35 -47,-47 -20,-12 -44,-18 -71,-18l-475 0 0 401z"/>
  <polygon class="fil0" points="10302,388 10673,388 10673,453 10302,453 10302,817 10967,817 10967,881 10249,881 10249,1 10967,1 10967,65 10302,65 "/>
  <polygon class="fil0" points="11469,102 11469,881 11416,881 11416,1 11462,1 12136,764 12136,1 12189,1 12189,890 12165,890 "/>
 </g>
</svg>
